<svg xmlns="http://www.w3.org/2000/svg" version="1.1" xmlns:xlink="http://www.w3.org/1999/xlink" width="1000" height="1000"><g clip-path="url(#SvgjsClipPath1060)"><rect width="1000" height="1000" fill="#ffffff"></rect><g transform="matrix(0.8676789587852495,0,0,0.8676789587852495,115.6182212581345,100)"><svg xmlns="http://www.w3.org/2000/svg" version="1.1" xmlns:xlink="http://www.w3.org/1999/xlink" width="886" height="922"><svg xmlns="http://www.w3.org/2000/svg" width="886" height="922" viewBox="0 0 886 922"><clipPath id="a"><path d="M0 0h886v922H0z"></path></clipPath><g clip-path="url(#a)"><path fill="#fefefe" d="M0 0h886v922.865H0z"></path><path fill="#fe9802" d="M421.91 6.496c3.374-.47 10.874.573 14.3 1.151 31.991 5.4 59.385 22.897 86.692 39.068l54.951 32.298 202.663 116.461c37.122 21.064 79.033 40.43 90.16 85.075 4.102 16.464 4.37 35.83 4.647 52.708.294 18.28-.052 36.555-.078 54.808l-.502 151.975.043 112.765c.052 21.23.96 50.687-.917 71.259a92.9 92.9 0 0 1-12.01 38.111c-14.831 25.517-40.336 42.877-68.612 50.657-41.16 11.325-78.616-13.697-112.992-33.99-8.472 9.506-16.678 18.562-25.898 27.375a383.9 383.9 0 0 1-126.6 79.95c-13.472 5.12-26.292 8.865-40.08 12.922a358 358 0 0 1-26.408 6.175c-98.749 18.32-200.751-2.75-284.14-58.697-84.198-57.474-142.137-145.987-161.1-246.11-19.053-101.352 4.675-205.723 63.37-289.991 45.88-65.869 110-111.988 185.161-138.752a379.5 379.5 0 0 1 56.582-15.69 71 71 0 0 1-.125-1.131C313.185 79.376 337.035 15.098 421.91 6.496"></path><path fill="#fff" d="M419.138 77.519c19.882-2.115 57.078 24.374 75.158 34.81l110.665 64.108 114.01 65.6c18.535 10.69 71.46 38.022 82.63 53.923.678 4.37.501 10.268.576 14.81l.457 25.066q.809 48.052.947 96.11.686 95.018.176 190.035l-.16 55.85c-.013 10.947-.022 21.968-.2 32.907-.332 20.334-10.116 28.48-28.668 34.152-15.78 1.378-97.957-49.818-116.292-60.58-8.39-5-16.945-9.716-25.65-14.144q.802-72.796.634-145.596.336-30.509-.327-61.012c-.395-13.71-.66-27.22-3.7-40.658-9.49-41.938-46.102-62.336-80.586-81.519l-36.705-20.501a5950 5950 0 0 1-87.205-50.71c-11.051-6.544-22.166-12.467-33.101-19.305-1.46-19.187-2.62-141.496 2.317-153.136 4.257-10.04 15.546-16.159 25.024-20.21"></path><path fill="#fff" d="M250.516 257.882c13.822-1.59 50.899 22.504 63.451 29.807l76.886 44.628 102.859 59.178c17.406 10.05 35.249 19.148 51.94 30.428 5.08 3.434 12.065 8.884 14.481 14.749 3.73 9.05 2.896 89.04 2.939 104.174l-.051 126.965-.448 71.746c-.135 11.335.995 35.036-3.1 45.404-4.272 10.817-19.332 17.455-29.997 21.001-17.184-2.532-116.792-64.16-138.254-76.092.78-26.914.407-53.672.546-80.585.132-28.49 3.518-57.213-4.058-85.104-6.574-24.202-19.293-42.8-39.658-57.223-13.767-9.75-27.833-18.3-42.292-26.965-28.904-17.32-58.8-32.748-88.078-49.364.478-12.65.159-27.18.114-39.892l-.08-66.679c.045-14.026-.239-29.406 1.345-43.35.227-2.003 1.425-4.102 2.655-5.692 7.781-10.066 16.5-15.073 28.8-17.134"></path><path fill="#fff" d="M92.578 439.509a13035 13035 0 0 1 138.335 80.084c24.278 14.116 49.49 27.062 72.956 42.563 8.817 5.825 15.776 15.154 16.25 26.018.9 20.611.56 41.42.557 62.073l-.026 109.136-.02 48.247c-.004 6.845.334 15.376-.422 22.189-.477 4.3-7.009 1.91-9.664 1.161-72.807-21.555-136.652-64.949-178.874-128.653a311.5 311.5 0 0 1-49.815-202.562c2.12-21.653 6.453-39.304 10.723-60.256"></path></g></svg></svg></g></g><defs><clipPath id="SvgjsClipPath1060"><rect width="1000" height="1000" x="0" y="0" rx="150" ry="150"></rect></clipPath></defs></svg>